<?xml version="1.0" encoding="UTF-8"?>
<svg id="_圖層_1" data-name="圖層_1" xmlns="http://www.w3.org/2000/svg" version="1.1" viewBox="0 0 258.56 171.94">
  <!-- Generator: Adobe Illustrator 30.0.0, SVG Export Plug-In . SVG Version: 2.1.1 Build 123)  -->
  <defs>
    <style>
      .st0 {
        fill: #fff;
      }

      .st1 {
        fill: #e60012;
      }
    </style>
  </defs>
  <g>
    <rect class="st0" y="26.67" width="258.56" height="145.27"/>
    <g>
      <g>
        <rect class="st1" x="128.71" y="36.94" width="119.15" height="125.53"/>
        <path class="st1" d="M117.28,119.63h0s.01,0,0,0Z"/>
      </g>
      <path class="st1" d="M135.45,120.07h0s.01,0,0,0Z"/>
    </g>
    <path class="st0" d="M235.44,59.76l-9.89-8.22c-.92-1.08-2.08.05-2.08.05l-3.97,4.03h-59.72s-5.07-3.58-8.35-4.37c-1.43-.34-2.79-.74-2.79,1.26v53.5c0,17.94.84,28.52-6.05,44.44,0,0-.18.25-.08.41,0,0,.07.22.44.03,2.87-1.6,11.29-6.51,15.46-14.72,2.96-5.84,2.75-12.68,2.64-36.64l-.06-6.52,2.12,4.06c.58,1.28,1.93,1.12,1.93,1.12,0,0,8.24.01,18.38.02l.08,7.91s11.11-.57,11.98-4.87v-1.49s-.01-1.54-.01-1.54c11.81,0,22.98,0,24.93-.02v39.48c0,1.6-.77,2.41-2.32,2.41l-7.14.04v-23.42h0v-1.04l2.73-2.88c1-1.06-.11-1.99-.11-1.99l-9.19-7.64c-.86-1-1.93.04-1.93.04l-3.69,3.74h-10.63s-.41,0-.97.02h-6.07c-.94-.47-5.29-3.01-9.42-3.78-2.36-.44-2.28,1.79-2.28,1.79v38.04s-.1.76.8.63c2.13-.22,7.98-1.06,10.84-3.68h18.22s3.25,4.49,11.02,4.52c.82,0,.69-.79.69-.79v-.59c4.36,1.63,7.98,5.38,9.34,7.43,0,0,1.06,1.98,3.25,1.7,5.06-.67,8.92-4.58,9-12.53v-74.98l3.03-2.81c1.04-1-.12-2.14-.12-2.14ZM199.09,132.1h-17.82v-17.25h17.82v17.25ZM161.4,90.36s-.2-.01-.43.06l-.17-19.52v-7.29h22.53v10.82h-19.53s-1.41-.09-.99,1.52l2.58,4.87c.61,1.38,1.73,1.37,1.73,1.37h16.21v6.34l.02,1.81h-21.94ZM214.25,87.6c-1.78-1.49-3.79,1.26-5.32,2.76h-13.46v-8.16h21.78c1,0,1.3-.83.76-1.75-.58-.97-5.44-7.26-7.2-8.77-1.78-1.49-3.79,1.26-5.32,2.76h-10.02v-3.65s1.85-1.65,3.42-3.36c.79-.85.54-2.23-1.77-3.82h23.27v31.31c-1.68-2.25-4.82-6.17-6.15-7.32Z"/>
    <g>
      <path class="st1" d="M119.56,72.44l-5.28-8.32c-1.47-2.04-3.25-.4-3.25-.4l-3.08,2.55H26.45s-1.6,0-.97,1.5l2.03,5.49s.38.92,1.43.97h18.21c.11.11.22.22.36.34,0,0,4.71,3.73,6.7,9.17-8.65-.02-15.03-.03-15.03-.03,0,0-6.76-2.3-9.92-2.62-1.83-.2-1.6,2.25-1.6,2.25v67.26s-.12,1.62,1.56,1.14c2.86-1.01,8.55-3.56,10.18-7.67,0,0,.26-.5.25-2.03v-27.8s4.12.38,8.34-1.37c0,0,.39-.17,1.03-.51v30.99s-.1.76.8.63c2.13-.22,7.98-1.06,10.84-3.68h19.3s3.25,4.49,11.02,4.51c.82,0,.7-.78.7-.78v-1.8c5.16,1.1,9.64,5.64,11.19,7.97,0,0,1.06,1.98,3.25,1.7,5.06-.67,8.92-4.58,9-12.53v-19.04h-.01v-27.42l2.17-1.64c.78-1.04-.18-2.25-.18-2.25,0,0-6.38-7.17-7.86-8.31-1.47-1.13-4.39,2.81-5.87,3.01-.36.05-1.29.07-2.49.08.02.02-5.82.02-13.91,0,2.4-2.29,4.12-4.37,4.12-4.37,1.12-1.16.14-2.2.14-2.2-.6-.87-1.71-2.02-2.72-2.99h30.42c1.49-.26.63-1.79.63-1.79ZM39.66,112.24v-20.61h14.21c-.5,6.08-6.89,16.48-14.21,20.61ZM79.84,132.52h-18.91v-13.44h18.91v13.44ZM79.51,111.24h-11.06s-.41,0-.97.02h-6.73c-.67-.34-3.08-1.73-5.91-2.77,5.32-4.71,7.56-9.16,10.79-16.85h10.42v8.59c0,5.79.18,9.11,5.45,9.01l-1.98,2.01ZM103.29,120.45s-.01,0-.01,0v16.89c0,1.6-.77,2.41-2.32,2.41l-9.26.05v-18.8h0v-1.12l2.73-2.79c.96-.93-.11-1.99-.11-1.99l-7.07-5.88,16.05-.04v11.28ZM103.29,91.63v9.63h-13.88c-2.46,0-2.81-.43-2.81-3.09v-6.54h16.69ZM77.33,83.78c-5.5,0-11.32-.02-16.72-.03,1.48-1.52,2.62-3.19,2.62-3.19.75-1.28-.49-2.13-.49-2.13-1.61-1.54-3.42-2.97-5.12-4.21h24.67l-4.97,9.56Z"/>
      <path class="st1" d="M39.89,60.11s.38.92,1.43.97h64.55c1.49-.26.63-1.79.63-1.79l-5.28-8.07c-1.47-2.04-3.25-.4-3.25-.4l-3.08,2.55h-56.07s-1.6,0-.97,1.51l2.03,5.24Z"/>
    </g>
    <path class="st1" d="M6.79,33.41v131.99h244.94V33.41H6.79ZM243.63,157.4H14.99V41.42h228.64v115.98Z"/>
  </g>
  <g>
    <path class="st1" d="M17.21,5.86h6.58c1.3,0,2.27.05,2.91.16.64.11,1.21.33,1.72.68.5.34.93.8,1.26,1.38.34.57.5,1.21.5,1.93,0,.77-.21,1.48-.62,2.12-.42.64-.98,1.13-1.69,1.45,1,.29,1.77.79,2.31,1.49s.81,1.53.81,2.48c0,.75-.17,1.48-.52,2.18-.35.71-.82,1.27-1.43,1.7-.6.42-1.35.68-2.23.78-.55.06-1.89.1-4.01.11h-5.6V5.86ZM20.53,8.6v3.81h2.18c1.29,0,2.1-.02,2.41-.06.57-.07,1.02-.26,1.34-.59s.49-.75.49-1.29-.14-.92-.42-1.24c-.28-.32-.7-.51-1.25-.58-.33-.04-1.28-.06-2.84-.06h-1.91ZM20.53,15.15v4.4h3.08c1.2,0,1.96-.03,2.28-.1.49-.09.9-.31,1.21-.66.31-.35.47-.81.47-1.4,0-.49-.12-.91-.36-1.26-.24-.34-.59-.6-1.04-.75-.45-.16-1.44-.24-2.95-.24h-2.68Z"/>
    <path class="st1" d="M33.78,5.86h3.32v8.92c0,1.41.04,2.33.12,2.75.14.67.48,1.21,1.02,1.62.54.41,1.27.61,2.2.61s1.65-.19,2.13-.58c.48-.39.77-.86.86-1.42.1-.56.15-1.49.15-2.8V5.86h3.32v8.65c0,1.98-.09,3.37-.27,4.19-.18.82-.51,1.5-.99,2.07-.48.56-1.13,1.01-1.94,1.34s-1.86.5-3.17.5c-1.57,0-2.76-.18-3.58-.54-.81-.36-1.45-.84-1.93-1.42-.47-.58-.78-1.19-.93-1.83-.22-.94-.33-2.34-.33-4.18V5.86Z"/>
    <path class="st1" d="M49.57,16.97l3.23-.31c.19,1.09.59,1.88,1.18,2.39.6.51,1.4.76,2.41.76,1.07,0,1.88-.23,2.42-.68.54-.45.81-.98.81-1.59,0-.39-.11-.72-.34-.99-.23-.27-.63-.51-1.2-.71-.39-.13-1.28-.37-2.66-.72-1.78-.44-3.03-.98-3.75-1.63-1.01-.91-1.52-2.01-1.52-3.31,0-.84.24-1.62.71-2.35.48-.73,1.16-1.29,2.05-1.67.89-.38,1.97-.57,3.24-.57,2.07,0,3.62.45,4.67,1.36,1.04.91,1.59,2.12,1.65,3.63l-3.32.15c-.14-.85-.45-1.45-.91-1.83-.47-.37-1.17-.56-2.11-.56s-1.72.2-2.27.59c-.35.25-.53.6-.53,1.02,0,.39.17.72.49,1,.42.35,1.44.72,3.05,1.1,1.62.38,2.81.78,3.59,1.18.78.41,1.38.97,1.82,1.67.44.71.66,1.58.66,2.62,0,.94-.26,1.83-.79,2.65-.52.82-1.27,1.44-2.22,1.84s-2.15.6-3.58.6c-2.08,0-3.68-.48-4.79-1.44-1.12-.96-1.78-2.36-2-4.21Z"/>
    <path class="st1" d="M65.65,22.33V5.86h3.32v16.46h-3.32Z"/>
    <path class="st1" d="M72.18,22.33V5.86h3.23l6.74,11V5.86h3.09v16.46h-3.33l-6.64-10.74v10.74h-3.09Z"/>
    <path class="st1" d="M88.76,22.33V5.86h12.21v2.79h-8.88v3.65h8.27v2.77h-8.27v4.48h9.2v2.77h-12.52Z"/>
    <path class="st1" d="M103.25,16.97l3.23-.31c.19,1.09.59,1.88,1.18,2.39.6.51,1.4.76,2.41.76,1.07,0,1.88-.23,2.42-.68.54-.45.81-.98.81-1.59,0-.39-.11-.72-.34-.99-.23-.27-.63-.51-1.2-.71-.39-.13-1.28-.37-2.66-.72-1.78-.44-3.03-.98-3.75-1.63-1.01-.91-1.52-2.01-1.52-3.31,0-.84.24-1.62.71-2.35.48-.73,1.16-1.29,2.05-1.67.89-.38,1.97-.57,3.24-.57,2.07,0,3.62.45,4.67,1.36,1.04.91,1.59,2.12,1.65,3.63l-3.32.15c-.14-.85-.45-1.45-.91-1.83-.47-.37-1.17-.56-2.11-.56s-1.72.2-2.27.59c-.35.25-.53.6-.53,1.02,0,.39.16.72.49,1,.42.35,1.44.72,3.05,1.1,1.62.38,2.81.78,3.59,1.18.78.41,1.38.97,1.82,1.67.44.71.66,1.58.66,2.62,0,.94-.26,1.83-.79,2.65-.52.82-1.27,1.44-2.22,1.84s-2.15.6-3.58.6c-2.08,0-3.68-.48-4.79-1.44-1.12-.96-1.78-2.36-2-4.21Z"/>
    <path class="st1" d="M118.59,16.97l3.23-.31c.19,1.09.59,1.88,1.18,2.39.6.51,1.4.76,2.41.76,1.07,0,1.88-.23,2.42-.68.54-.45.81-.98.81-1.59,0-.39-.11-.72-.34-.99-.23-.27-.63-.51-1.2-.71-.39-.13-1.28-.37-2.66-.72-1.78-.44-3.03-.98-3.75-1.63-1.01-.91-1.52-2.01-1.52-3.31,0-.84.24-1.62.71-2.35.48-.73,1.16-1.29,2.05-1.67.89-.38,1.97-.57,3.24-.57,2.07,0,3.62.45,4.67,1.36,1.04.91,1.59,2.12,1.65,3.63l-3.32.15c-.14-.85-.45-1.45-.92-1.83-.47-.37-1.17-.56-2.11-.56s-1.72.2-2.27.59c-.35.25-.53.6-.53,1.02,0,.39.16.72.49,1,.42.35,1.44.72,3.05,1.1,1.62.38,2.81.78,3.59,1.18.78.41,1.38.97,1.82,1.67.44.71.66,1.58.66,2.62,0,.94-.26,1.83-.79,2.65-.52.82-1.27,1.44-2.22,1.84s-2.15.6-3.58.6c-2.08,0-3.68-.48-4.79-1.44-1.12-.96-1.78-2.36-2-4.21Z"/>
    <path class="st1" d="M149.89,22.33l-3.93-16.46h3.4l2.48,11.31,3.01-11.31h3.95l2.89,11.5,2.53-11.5h3.35l-4,16.46h-3.53l-3.28-12.31-3.27,12.31h-3.6Z"/>
    <path class="st1" d="M169.27,22.33V5.86h12.21v2.79h-8.88v3.65h8.27v2.77h-8.27v4.48h9.2v2.77h-12.52Z"/>
    <path class="st1" d="M184.61,22.33V5.86h12.21v2.79h-8.88v3.65h8.27v2.77h-8.27v4.48h9.2v2.77h-12.52Z"/>
    <path class="st1" d="M199.99,22.33V5.86h3.32v7.31l6.71-7.31h4.47l-6.2,6.41,6.54,10.05h-4.3l-4.53-7.73-2.7,2.75v4.97h-3.32Z"/>
    <path class="st1" d="M216.65,22.33V6h3.32v13.56h8.27v2.77h-11.59Z"/>
    <path class="st1" d="M232.82,22.33v-6.93l-6.03-9.53h3.9l3.87,6.51,3.79-6.51h3.83l-6.05,9.56v6.91h-3.31Z"/>
  </g>
</svg>